<svg width="211" height="28" viewBox="0 0 211 28" fill="none" xmlns="http://www.w3.org/2000/svg">
<path opacity="0.44" fill-rule="evenodd" clip-rule="evenodd" d="M0.150734 27.9722H0.0523354V27.4297C0.0523354 27.5768 0.0663923 27.7285 0.12262 27.8757C0.12262 27.9078 0.136677 27.9354 0.150734 27.9722Z" fill="url(#paint0_linear)"/>
<path fill-rule="evenodd" clip-rule="evenodd" d="M23.2187 11.1641V11.61C23.2187 14.502 20.8643 16.8468 17.9606 16.8468H0.0351562V16.4008C0.0351562 13.5089 2.38952 11.1641 5.29323 11.1641H23.2187V11.1641Z" fill="url(#paint1_linear)"/>
<path fill-rule="evenodd" clip-rule="evenodd" d="M28.6586 2.71724C26.4935 1.12184 23.8437 0.133333 20.9769 0H19.6751H0V0.441379C0 3.33333 2.35436 5.67816 5.25808 5.67816H9.01583H20.3491C24.9332 5.67816 28.654 9.37931 28.654 13.9494C28.654 18.5149 24.9378 22.2207 20.3491 22.2207L9.02968 22.2621H4.22862C1.81886 22.7356 0 24.8552 0 27.3977C0 27.5448 0.0046164 27.6966 0.023082 27.8437C0.0276984 27.8759 0.0276984 27.908 0.0369312 27.9402H20.3214C23.4421 27.9402 26.3227 26.9287 28.654 25.2092C32.1117 22.6621 34.3552 18.5747 34.3552 13.9632C34.3552 9.35172 32.1117 5.25977 28.6586 2.71724Z" fill="url(#paint2_linear)"/>
<path fill-rule="evenodd" clip-rule="evenodd" d="M56.814 2.95703V7.80301H47.235V11.4858H55.8907V15.8122H47.235V19.5869H56.814V24.4329H42V2.96163H56.814V2.95703Z" fill="white"/>
<path fill-rule="evenodd" clip-rule="evenodd" d="M65.8067 9.21412C61.5273 9.21412 58.7852 12.621 58.7852 16.975C58.7852 21.3015 61.5273 24.7957 65.8067 24.7957C67.5009 24.7957 69.1628 24.2762 70.3631 23.0486V24.4279H75.3534V2.03711H70.3631V10.7176C69.3475 9.76585 67.6256 9.21412 65.8067 9.21412ZM67.1593 13.5084C69.2551 13.5084 70.4877 15.044 70.4877 16.975C70.4877 18.998 69.2551 20.4739 67.1593 20.4739C65.0635 20.4739 63.8309 18.9704 63.8309 16.975C63.8309 15.044 65.0635 13.5084 67.1593 13.5084Z" fill="white"/>
<path fill-rule="evenodd" clip-rule="evenodd" d="M78.0938 21.5779L79.7557 20.8101C80.2496 22.3135 81.7269 23.1089 83.4211 23.1089C85.1476 23.1089 86.7772 22.3135 86.7772 20.594C86.7772 19.1227 85.5769 18.3227 84.0997 17.8951L82.4055 17.4032C80.2173 16.7917 78.8001 15.6561 78.8001 13.5365C78.8001 11.2055 81.0159 9.82617 83.3888 9.82617C85.3923 9.82617 87.0865 10.6216 87.8251 12.2813L86.1632 13.0492C85.6693 11.9733 84.6213 11.5135 83.3934 11.5135C82.0362 11.5135 80.7159 12.1572 80.7159 13.5365C80.7159 14.7963 81.7961 15.3756 83.0564 15.7434L84.626 16.171C86.9665 16.8469 88.7207 18.194 88.7207 20.525C88.7207 23.2561 86.1955 24.7871 83.4211 24.7871C80.8359 24.7963 78.68 23.5733 78.0938 21.5779Z" fill="white"/>
<path fill-rule="evenodd" clip-rule="evenodd" d="M94.9744 10.1334H100.117V11.8208H94.9744V24.4277H93.1278V11.8208H90.418L94.1434 5.10352H94.9744V10.1334Z" fill="white"/>
<path fill-rule="evenodd" clip-rule="evenodd" d="M102.699 10.1331H104.546V11.8803C105.132 10.5929 106.485 9.94922 107.874 9.94922C110.367 9.94922 111.784 11.6963 111.724 14.2113H109.878C109.878 12.6159 108.987 11.6366 107.413 11.6366C105.594 11.6366 104.55 13.0803 104.55 15.0435V24.432H102.704V10.1331H102.699Z" fill="white"/>
<path fill-rule="evenodd" clip-rule="evenodd" d="M125.063 18.5098V10.1328H126.91V18.6615C126.91 22.3443 124.352 24.7673 120.659 24.7673C116.934 24.7673 114.344 22.3443 114.344 18.6615V10.1328H116.19V18.5052C116.19 21.2363 117.917 23.0753 120.654 23.0753C123.369 23.0799 125.063 21.2363 125.063 18.5098Z" fill="white"/>
<path fill-rule="evenodd" clip-rule="evenodd" d="M131.344 10.1333H133.071V12.4965C134.027 10.6574 135.721 9.85742 137.66 9.85742C139.94 9.85742 141.662 11.0252 142.493 13.016C143.356 10.9931 145.203 9.85742 147.543 9.85742C150.9 9.85742 153.148 12.4643 153.148 16.0229V24.4275H151.301V16.2988C151.301 13.5678 149.759 11.6367 147.234 11.6367C144.709 11.6367 143.167 13.5678 143.167 16.2988V24.4275H141.32V16.2988C141.32 13.5678 139.779 11.6367 137.253 11.6367C134.728 11.6367 133.186 13.5678 133.186 16.2988V24.4275H131.34V10.1333H131.344Z" fill="white"/>
<path fill-rule="evenodd" clip-rule="evenodd" d="M158.54 18.0195H170.552C170.574 17.8472 170.579 17.5784 170.582 17.3833C170.583 17.3338 170.584 17.289 170.585 17.2517C170.585 13.0494 168.059 9.79883 163.715 9.79883C159.344 9.79883 156.602 13.0172 156.602 17.2839C156.602 21.5506 159.344 24.8011 163.715 24.8011C166.795 24.8011 169.103 23.3299 170.151 20.7827L168.489 20.1069C167.658 22.0057 165.996 23.0816 163.748 23.0816C160.636 23.0816 158.785 20.9023 158.54 18.0195ZM168.673 16.4563H158.54C158.845 13.6655 160.669 11.5184 163.715 11.5184C166.762 11.5184 168.429 13.6057 168.673 16.4563Z" fill="white"/>
<path fill-rule="evenodd" clip-rule="evenodd" d="M176.063 10.1345V12.4057C177.046 10.6264 178.898 9.79883 180.961 9.79883C184.627 9.79883 186.875 12.4655 186.875 16.0885V24.4333H185.028V16.2402C185.028 13.4816 183.334 11.5781 180.592 11.5781C177.822 11.5781 176.128 13.4816 176.128 16.2402V24.4287H174.281V10.1345H176.063Z" fill="white"/>
<path fill-rule="evenodd" clip-rule="evenodd" d="M194.084 10.1334H199.226V11.8208H194.084V24.4277H192.237V11.8208H189.527L193.253 5.10352H194.084V10.1334Z" fill="white"/>
<path fill-rule="evenodd" clip-rule="evenodd" d="M200.023 21.5779L201.685 20.8101C202.179 22.3135 203.657 23.1089 205.351 23.1089C207.077 23.1089 208.707 22.3135 208.707 20.594C208.707 19.1227 207.507 18.3227 206.029 17.8951L204.335 17.4032C202.147 16.7917 200.73 15.6561 200.73 13.5365C200.73 11.2055 202.946 9.82617 205.318 9.82617C207.322 9.82617 209.016 10.6216 209.755 12.2813L208.093 13.0492C207.599 11.9733 206.551 11.5135 205.323 11.5135C203.966 11.5135 202.646 12.1572 202.646 13.5365C202.646 14.7963 203.726 15.3756 204.986 15.7434L206.556 16.171C208.896 16.8469 210.65 18.194 210.65 20.525C210.65 23.2561 208.125 24.7871 205.351 24.7871C202.766 24.7963 200.61 23.5733 200.023 21.5779Z" fill="white"/>
<defs>
<linearGradient id="paint0_linear" x1="0.0548235" y1="27.8974" x2="0.15706" y2="27.8974" gradientUnits="userSpaceOnUse">
<stop stop-color="#A94190"/>
<stop offset="0.9997" stop-color="#68AED2"/>
</linearGradient>
<linearGradient id="paint1_linear" x1="0.0359734" y1="16.8447" x2="23.218" y2="16.8447" gradientUnits="userSpaceOnUse">
<stop stop-color="#A94190"/>
<stop offset="0.9997" stop-color="#68AED2"/>
</linearGradient>
<linearGradient id="paint2_linear" x1="0.000817103" y1="27.9409" x2="34.3567" y2="27.9409" gradientUnits="userSpaceOnUse">
<stop stop-color="#A94190"/>
<stop offset="0.9997" stop-color="#68AED2"/>
</linearGradient>
</defs>
</svg>
