<svg width="37" height="35" fill="none" xmlns="http://www.w3.org/2000/svg"><circle cx="26.215" cy="11.457" r="10.727" fill="#69AFD3" fill-opacity=".2"/><path d="M11.43 15.796c-.809.243-1.127 1.171-.792 2.31a.362.362 0 1 1-.695.205c-.449-1.529.077-2.848 1.278-3.208a.362.362 0 0 1 .208.694z" fill="#AA4190"/><path d="M24.982 24.246c-1.688 3.023-2.58 6.493-2.58 10.035 0 .2-.163.362-.363.362H8.643a.362.362 0 0 1-.362-.362v-4.647h-1.59a3.126 3.126 0 0 1-3.123-3.122V25.35H1.93c-.563 0-1.083-.281-1.393-.751a1.664 1.664 0 0 1-.14-1.576l.433-1.007c.497-1.156.747-2.444.745-3.846 0-3.45 1.447-6.779 3.97-9.134 2.558-2.388 5.897-3.567 9.406-3.328 6.12.421 11.094 5.35 11.57 11.464.193 2.48-.34 4.927-1.538 7.074zm.816-7.018c-.448-5.759-5.133-10.4-10.897-10.797-3.307-.226-6.453.885-8.863 3.135a11.82 11.82 0 0 0-3.74 8.622c.003 1.482-.268 2.866-.804 4.114l-.432 1.006a.93.93 0 0 0 .079.893.93.93 0 0 0 .788.424H3.93c.2 0 .362.162.362.363v1.524A2.4 2.4 0 0 0 6.69 28.91h1.953c.2 0 .362.162.362.362v4.647H21.68c.06-3.54.979-6.999 2.67-10.026a11.755 11.755 0 0 0 1.448-6.665z" fill="#AA4190"/></svg>