<svg width="40" height="37" fill="none" xmlns="http://www.w3.org/2000/svg"><circle cx="11.571" cy="11.075" r="10.727" fill="#69AFD3" fill-opacity=".2"/><path d="M25.067 27.89a2.855 2.855 0 0 1-2.84-2.84h-.856a3.7 3.7 0 0 0 3.268 3.665v1.894h.855v-1.894a3.7 3.7 0 0 0 3.269-3.665 3.689 3.689 0 0 0-3.696-3.695 2.855 2.855 0 0 1-2.84-2.841 2.855 2.855 0 0 1 2.84-2.84 2.855 2.855 0 0 1 2.84 2.84h.856a3.7 3.7 0 0 0-3.269-3.665v-1.894h-.855v1.894a3.7 3.7 0 0 0-3.268 3.665 3.689 3.689 0 0 0 3.696 3.696 2.855 2.855 0 0 1 2.84 2.84 2.855 2.855 0 0 1-2.84 2.84z" fill="#AA4190"/><path d="M32.582 33.205c-5.376 3.543-12.614 2.81-17.165-1.772-4.704-4.673-5.345-11.881-1.65-17.318l.856.703.519-2.994-2.84 1.07.855.702c-4.032 5.742-3.36 13.439 1.649 18.448 2.81 2.81 6.536 4.245 10.293 4.245 2.78 0 5.528-.794 7.972-2.382a.435.435 0 0 0 .122-.58c-.153-.214-.397-.275-.61-.122zM35.327 11.519C30.41 6.6 22.713 5.869 16.971 9.747a.435.435 0 0 0-.122.58.435.435 0 0 0 .58.123c5.406-3.635 12.676-2.932 17.288 1.68 4.703 4.673 5.345 11.88 1.649 17.318l-.855-.703-.52 2.993 2.841-1.069-.855-.702c4.032-5.742 3.36-13.44-1.65-18.448z" fill="#AA4190"/></svg>