<svg width="42" height="34" fill="none" xmlns="http://www.w3.org/2000/svg"><circle cx="11.426" cy="11.459" r="10.727" fill="#69AFD3" fill-opacity=".2"/><path d="M10.094 23.818a4.08 4.08 0 0 0 4.075-4.075 4.08 4.08 0 0 0-4.075-4.075 4.079 4.079 0 0 0-4.074 4.075 4.079 4.079 0 0 0 4.074 4.075zm0-7.296a3.224 3.224 0 0 1 3.22 3.22 3.224 3.224 0 0 1-3.22 3.221 3.224 3.224 0 0 1-3.22-3.22 3.224 3.224 0 0 1 3.22-3.22zM10.093 25.438a6.636 6.636 0 0 0-6.628 6.628c0 1.04.846 1.886 1.886 1.886h9.484c1.04 0 1.886-.846 1.886-1.886a6.636 6.636 0 0 0-6.628-6.629zm4.742 7.66H5.35a1.033 1.033 0 0 1-1.032-1.032 5.78 5.78 0 0 1 5.774-5.775 5.78 5.78 0 0 1 5.774 5.775c0 .569-.463 1.031-1.032 1.031zM22.688 15.802a4.079 4.079 0 0 0 4.075-4.075 4.08 4.08 0 0 0-4.075-4.075 4.08 4.08 0 0 0-4.075 4.075 4.079 4.079 0 0 0 4.075 4.075zm0-7.295a3.224 3.224 0 0 1 3.22 3.22 3.224 3.224 0 0 1-3.22 3.22 3.224 3.224 0 0 1-3.22-3.22 3.224 3.224 0 0 1 3.22-3.22zM29.315 24.05a6.635 6.635 0 0 0-6.628-6.628 6.635 6.635 0 0 0-6.628 6.628c0 1.04.845 1.886 1.886 1.886h9.483c1.04 0 1.887-.846 1.887-1.886zm-1.886 1.032h-9.484a1.033 1.033 0 0 1-1.032-1.032 5.78 5.78 0 0 1 5.774-5.774 5.78 5.78 0 0 1 5.773 5.774c0 .569-.462 1.032-1.031 1.032zM35.282 23.818a4.079 4.079 0 0 0 4.074-4.075 4.079 4.079 0 0 0-4.074-4.075 4.08 4.08 0 0 0-4.075 4.075 4.08 4.08 0 0 0 4.075 4.075zm0-7.296a3.224 3.224 0 0 1 3.22 3.22 3.224 3.224 0 0 1-3.22 3.221 3.224 3.224 0 0 1-3.22-3.22 3.224 3.224 0 0 1 3.22-3.22zM35.285 25.438a6.636 6.636 0 0 0-6.629 6.628c0 1.04.847 1.886 1.887 1.886h9.483c1.04 0 1.886-.846 1.886-1.886a6.635 6.635 0 0 0-6.627-6.629zm4.741 7.66h-9.483a1.033 1.033 0 0 1-1.032-1.032 5.78 5.78 0 0 1 5.774-5.775 5.78 5.78 0 0 1 5.774 5.775c0 .569-.464 1.031-1.033 1.031z" fill="#AA4190"/></svg>